<svg width="520.2125px" height="135.2px" xmlns="http://www.w3.org/2000/svg" viewBox="-10.106249999999989 7.400000000000006 520.2125 135.2" style="background: rgba(0, 0, 0, 0);" preserveAspectRatio="xMidYMid"><defs><filter id="editing-extrusion" x="-100%" y="-100%" width="300%" height="300%"><feFlood result="color1" flood-color="#444"></feFlood><feConvolveMatrix order="8,8" divisor="1" kernelMatrix="1 0 0 0 0 0 0 0 0 1 0 0 0 0 0 0 0 0 1 0 0 0 0 0 0 0 0 1 0 0 0 0 0 0 0 0 1 0 0 0 0 0 0 0 0 1 0 0 0 0 0 0 0 0 1 0 0 0 0 0 0 0 0 1" in="SourceAlpha" result="extrude"></feConvolveMatrix><feComposite in="color1" in2="extrude" result="comp-extrude" operator="in"></feComposite><feOffset dx="4" dy="4" in="comp-extrude" result="offset-extrude"></feOffset><feMerge><feMergeNode in="offset-extrude"></feMergeNode><feMergeNode in="SourceGraphic"></feMergeNode></feMerge></filter></defs><g filter="url(#editing-extrusion)"><g transform="translate(65.52998113632202, 99.18500328063965)"><path d="M23.56-18.19L22.91-18.94L22.91-18.94Q23.78-19.81 25.22-20.92L25.22-20.92L25.22-20.92Q26.66-22.03 28.70-23L28.70-23L28.70-23Q30.75-23.97 33.39-24.63L33.39-24.63L33.39-24.63Q36.03-25.28 39.28-25.28L39.28-25.28L39.28-25.28Q41.63-25.28 43.88-24.70L43.88-24.70L43.88-24.70Q46.13-24.13 47.89-22.84L47.89-22.84L47.89-22.84Q49.66-21.56 50.75-19.52L50.75-19.52L50.75-19.52Q51.84-17.47 51.84-14.53L51.84-14.53L51.84-14.53Q51.84-12.13 50.81-10L50.81-10L50.81-10Q49.78-7.88 47.97-6.08L47.97-6.08L47.97-6.08Q46.16-4.28 43.72-2.86L43.72-2.86L43.72-2.86Q41.28-1.44 38.48-0.45L38.48-0.45L38.48-0.45Q35.69 0.53 32.66 1.06L32.66 1.06L32.66 1.06Q29.63 1.59 26.63 1.59L26.63 1.59L26.63 1.59Q23.34 1.59 20.34 0.94L20.34 0.94L20.34 0.94Q17.34 0.28 14.72-0.98L14.72-0.98L14.72-0.98Q12.09-2.25 9.95-4.11L9.95-4.11L9.95-4.11Q7.81-5.97 6.28-8.36L6.28-8.36L6.28-8.36Q4.75-10.75 3.91-13.67L3.91-13.67L3.91-13.67Q3.06-16.59 3.06-19.97L3.06-19.97L3.06-19.97Q3.13-23.38 4.02-26.31L4.02-26.31L4.02-26.31Q4.91-29.25 6.42-31.72L6.42-31.72L6.42-31.72Q7.94-34.19 10.02-36.20L10.02-36.20L10.02-36.20Q12.09-38.22 14.52-39.77L14.52-39.77L14.52-39.77Q16.94-41.31 19.61-42.39L19.61-42.39L19.61-42.39Q22.28-43.47 25.03-44.09L25.03-44.09L25.03-44.09Q26.16-44.38 27.48-44.53L27.48-44.53L27.48-44.53Q28.81-44.69 30.23-44.78L30.23-44.78L30.23-44.78Q31.66-44.88 33.16-44.91L33.16-44.91L33.16-44.91Q34.66-44.94 36.16-44.94L36.16-44.94L36.16-44.94Q39-44.94 41.58-44.88L41.58-44.88L41.58-44.88Q44.16-44.81 45.88-44.81L45.88-44.81L45.88-44.81Q45.53-43.34 45.39-42.20L45.39-42.20L45.39-42.20Q45.25-41.06 45.25-40.06L45.25-40.06L45.25-40.06Q45.25-38.66 45.47-37.45L45.47-37.45L45.47-37.45Q45.69-36.25 46.09-34.88L46.09-34.88L44.69-34.81L44.69-34.81Q43.75-36.81 42.25-38.33L42.25-38.33L42.25-38.33Q40.75-39.84 38.94-40.86L38.94-40.86L38.94-40.86Q37.13-41.88 35.08-42.38L35.08-42.38L35.08-42.38Q33.03-42.88 31.03-42.88L31.03-42.88L31.03-42.88Q27.75-42.88 25.20-41.81L25.20-41.81L25.20-41.81Q22.66-40.75 20.73-38.98L20.73-38.98L20.73-38.98Q18.81-37.22 17.48-34.94L17.48-34.94L17.48-34.94Q16.16-32.66 15.33-30.20L15.33-30.20L15.33-30.20Q14.50-27.75 14.13-25.31L14.13-25.31L14.13-25.31Q13.75-22.88 13.75-20.81L13.75-20.81L13.75-20.81Q13.75-16.59 14.97-13.02L14.97-13.02L14.97-13.02Q16.19-9.44 18.33-6.83L18.33-6.83L18.33-6.83Q20.47-4.22 23.39-2.75L23.39-2.75L23.39-2.75Q26.31-1.28 29.75-1.28L29.75-1.28L29.75-1.28Q32.19-1.28 34.03-1.86L34.03-1.86L34.03-1.86Q35.88-2.44 37.20-3.38L37.20-3.38L37.20-3.38Q38.53-4.31 39.42-5.55L39.42-5.55L39.42-5.55Q40.31-6.78 40.83-8.09L40.83-8.09L40.83-8.09Q41.34-9.41 41.56-10.72L41.56-10.72L41.56-10.72Q41.78-12.03 41.78-13.13L41.78-13.13L41.78-13.13Q41.78-14.94 41.19-16.56L41.19-16.56L41.19-16.56Q40.59-18.19 39.47-19.41L39.47-19.41L39.47-19.41Q38.34-20.63 36.70-21.33L36.70-21.33L36.70-21.33Q35.06-22.03 32.97-22.03L32.97-22.03L32.97-22.03Q31.13-22.03 29.56-21.55L29.56-21.55L29.56-21.55Q28-21.06 26.80-20.44L26.80-20.44L26.80-20.44Q25.59-19.81 24.77-19.16L24.77-19.16L24.77-19.16Q23.94-18.50 23.56-18.19L23.56-18.19ZM56.13-16.78L56.13-16.78L56.13-16.78Q56.13-18.75 56.63-20.83L56.63-20.83L56.63-20.83Q57.13-22.91 58.16-24.91L58.16-24.91L58.16-24.91Q59.19-26.91 60.77-28.67L60.77-28.67L60.77-28.67Q62.34-30.44 64.48-31.78L64.48-31.78L64.48-31.78Q66.63-33.13 69.36-33.91L69.36-33.91L69.36-33.91Q72.09-34.69 75.44-34.69L75.44-34.69L75.44-34.69Q78.94-34.69 81.73-33.97L81.73-33.97L81.73-33.97Q84.53-33.25 86.69-31.98L86.69-31.98L86.69-31.98Q88.84-30.72 90.41-29L90.41-29L90.41-29Q91.97-27.28 92.97-25.28L92.97-25.28L92.97-25.28Q93.97-23.28 94.44-21.11L94.44-21.11L94.44-21.11Q94.91-18.94 94.91-16.78L94.91-16.78L94.91-16.78Q94.91-14.72 94.44-12.61L94.44-12.61L94.44-12.61Q93.97-10.50 92.95-8.53L92.95-8.53L92.95-8.53Q91.94-6.56 90.39-4.83L90.39-4.83L90.39-4.83Q88.84-3.09 86.67-1.81L86.67-1.81L86.67-1.81Q84.50-0.53 81.70 0.22L81.70 0.22L81.70 0.22Q78.91 0.97 75.44 0.97L75.44 0.97L75.44 0.97Q72.09 0.97 69.38 0.23L69.38 0.23L69.38 0.23Q66.66-0.50 64.52-1.78L64.52-1.78L64.52-1.78Q62.38-3.06 60.80-4.80L60.80-4.80L60.80-4.80Q59.22-6.53 58.17-8.50L58.17-8.50L58.17-8.50Q57.13-10.47 56.63-12.59L56.63-12.59L56.63-12.59Q56.13-14.72 56.13-16.78ZM65.66-16.91L65.66-16.91L65.66-16.91Q65.66-13.94 66.08-11.13L66.08-11.13L66.08-11.13Q66.50-8.31 67.58-6.13L67.58-6.13L67.58-6.13Q68.66-3.94 70.52-2.58L70.52-2.58L70.52-2.58Q72.38-1.22 75.25-1.16L75.25-1.16L75.25-1.16Q77.16-1.16 78.66-1.80L78.66-1.80L78.66-1.80Q80.16-2.44 81.28-3.56L81.28-3.56L81.28-3.56Q82.41-4.69 83.19-6.19L83.19-6.19L83.19-6.19Q83.97-7.69 84.47-9.41L84.47-9.41L84.47-9.41Q84.97-11.13 85.20-12.97L85.20-12.97L85.20-12.97Q85.44-14.81 85.50-16.63L85.50-16.63L85.50-16.63Q85.50-18.47 85.31-20.38L85.31-20.38L85.31-20.38Q85.13-22.28 84.69-24.05L84.69-24.05L84.69-24.05Q84.25-25.81 83.52-27.36L83.52-27.36L83.52-27.36Q82.78-28.91 81.69-30.05L81.69-30.05L81.69-30.05Q80.59-31.19 79.11-31.84L79.11-31.84L79.11-31.84Q77.63-32.50 75.66-32.50L75.66-32.50L75.66-32.50Q72.78-32.50 70.88-31.20L70.88-31.20L70.88-31.20Q68.97-29.91 67.81-27.75L67.81-27.75L67.81-27.75Q66.66-25.59 66.17-22.77L66.17-22.77L66.17-22.77Q65.69-19.94 65.66-16.91ZM112.84-31.63L99.06-31.63L99.06-31.63Q99.94-33.34 100.17-35.05L100.17-35.05L100.17-35.05Q100.41-36.75 100.41-38.03L100.41-38.03L100.41-38.03Q100.41-38.38 100.39-38.64L100.39-38.64L100.39-38.64Q100.38-38.91 100.38-39.09L100.38-39.09L100.38-39.09Q100.34-39.31 100.34-39.50L100.34-39.50L101.50-39.69L101.50-39.69Q101.59-38.28 102.27-37.28L102.27-37.28L102.27-37.28Q102.94-36.28 103.92-35.61L103.92-35.61L103.92-35.61Q104.91-34.94 106.09-34.53L106.09-34.53L106.09-34.53Q107.28-34.13 108.44-33.92L108.44-33.92L108.44-33.92Q109.59-33.72 110.58-33.66L110.58-33.66L110.58-33.66Q111.56-33.59 112.19-33.59L112.19-33.59L136.63-33.59L136.63-33.59Q135.78-31.84 135.53-30.16L135.53-30.16L135.53-30.16Q135.28-28.47 135.28-27.19L135.28-27.19L135.28-27.19Q135.28-26.84 135.28-26.58L135.28-26.58L135.28-26.58Q135.28-26.31 135.31-26.13L135.31-26.13L135.31-26.13Q135.31-25.91 135.34-25.72L135.34-25.72L134.22-25.53L134.22-25.53Q134.09-26.94 133.42-27.94L133.42-27.94L133.42-27.94Q132.75-28.94 131.77-29.61L131.77-29.61L131.77-29.61Q130.78-30.28 129.59-30.69L129.59-30.69L129.59-30.69Q128.41-31.09 127.27-31.30L127.27-31.30L127.27-31.30Q126.13-31.50 125.13-31.56L125.13-31.56L125.13-31.56Q124.13-31.63 123.53-31.63L123.53-31.63L122.94-31.63L122.94-31.63Q119.97-31.47 117.64-30.17L117.64-30.17L117.64-30.17Q115.31-28.88 113.70-26.77L113.70-26.77L113.70-26.77Q112.09-24.66 111.23-21.94L111.23-21.94L111.23-21.94Q110.38-19.22 110.34-16.25L110.34-16.25L110.34-16.25Q110.34-13.28 110.84-10.55L110.84-10.55L110.84-10.55Q111.34-7.81 112.44-5.72L112.44-5.72L112.44-5.72Q113.53-3.63 115.31-2.39L115.31-2.39L115.31-2.39Q117.09-1.16 119.63-1.16L119.63-1.16L119.63-1.16Q121.47-1.16 122.81-1.75L122.81-1.75L122.81-1.75Q124.16-2.34 125.13-3.39L125.13-3.39L125.13-3.39Q126.09-4.44 126.78-5.84L126.78-5.84L126.78-5.84Q127.47-7.25 128-8.91L128-8.91L135.34-6.41L135.34-6.41Q134.22-4.81 132.77-3.47L132.77-3.47L132.77-3.47Q131.31-2.13 129.42-1.14L129.42-1.14L129.42-1.14Q127.53-0.16 125.16 0.41L125.16 0.41L125.16 0.41Q122.78 0.97 119.81 0.97L119.81 0.97L119.81 0.97Q116.66 0.97 114.05 0.28L114.05 0.28L114.05 0.28Q111.44-0.41 109.36-1.63L109.36-1.63L109.36-1.63Q107.28-2.84 105.73-4.48L105.73-4.48L105.73-4.48Q104.19-6.13 103.16-8.03L103.16-8.03L103.16-8.03Q102.13-9.94 101.63-12L101.63-12L101.63-12Q101.13-14.06 101.13-16.13L101.13-16.13L101.13-16.13Q101.13-18.75 101.91-21.11L101.91-21.11L101.91-21.11Q102.69-23.47 104.17-25.45L104.17-25.45L104.17-25.45Q105.66-27.44 107.84-29L107.84-29L107.84-29Q110.03-30.56 112.84-31.63L112.84-31.63ZM157.31-1.16L157.31 0L139.38 0L139.38-1.16L139.38-1.16Q140.69-1.16 141.50-1.42L141.50-1.42L141.50-1.42Q142.31-1.69 142.78-2.14L142.78-2.14L142.78-2.14Q143.25-2.59 143.42-3.17L143.42-3.17L143.42-3.17Q143.59-3.75 143.59-4.41L143.59-4.41L143.59-38.91L143.59-38.91Q143.59-39.38 143.42-39.91L143.42-39.91L143.42-39.91Q143.25-40.44 142.78-40.89L142.78-40.89L142.78-40.89Q142.31-41.34 141.50-41.66L141.50-41.66L141.50-41.66Q140.69-41.97 139.38-41.97L139.38-41.97L139.38-43.13L153.06-43.13L153.06-27.97L153.06-27.97Q153.69-29.06 154.56-30.11L154.56-30.11L154.56-30.11Q155.44-31.16 156.61-32.03L156.61-32.03L156.61-32.03Q157.78-32.91 159.27-33.56L159.27-33.56L159.27-33.56Q160.75-34.22 162.63-34.56L162.63-34.56L162.63-34.56Q165.25-35.03 167.31-34.72L167.31-34.72L167.31-34.72Q169.38-34.41 170.94-33.53L170.94-33.53L170.94-33.53Q172.50-32.66 173.59-31.30L173.59-31.30L173.59-31.30Q174.69-29.94 175.38-28.28L175.38-28.28L175.38-28.28Q176.06-26.63 176.38-24.75L176.38-24.75L176.38-24.75Q176.69-22.88 176.69-21L176.69-21L176.69-4.41L176.69-4.41Q176.69-3.94 176.84-3.38L176.84-3.38L176.84-3.38Q177-2.81 177.44-2.33L177.44-2.33L177.44-2.33Q177.88-1.84 178.70-1.50L178.70-1.50L178.70-1.50Q179.53-1.16 180.91-1.16L180.91-1.16L180.91 0L163.38 0L163.38-1.16L163.38-1.16Q164.69-1.16 165.50-1.42L165.50-1.42L165.50-1.42Q166.31-1.69 166.78-2.14L166.78-2.14L166.78-2.14Q167.25-2.59 167.42-3.17L167.42-3.17L167.42-3.17Q167.59-3.75 167.59-4.41L167.59-4.41L167.59-22.91L167.59-22.91Q167.59-25.34 167.03-27.03L167.03-27.03L167.03-27.03Q166.47-28.72 165.53-29.70L165.53-29.70L165.53-29.70Q164.59-30.69 163.34-31L163.34-31L163.34-31Q162.09-31.31 160.69-30.97L160.69-30.97L160.69-30.97Q158.75-30.50 157.33-29.33L157.33-29.33L157.33-29.33Q155.91-28.16 154.98-26.52L154.98-26.52L154.98-26.52Q154.06-24.88 153.59-22.84L153.59-22.84L153.59-22.84Q153.13-20.81 153.06-18.63L153.06-18.63L153.06-4.41L153.06-4.41Q153.06-3.94 153.22-3.38L153.22-3.38L153.22-3.38Q153.38-2.81 153.83-2.33L153.83-2.33L153.83-2.33Q154.28-1.84 155.11-1.50L155.11-1.50L155.11-1.50Q155.94-1.16 157.31-1.16L157.31-1.16ZM217.41-25.22L217.41-25.22L216.38-25.16L216.38-25.16Q215.66-26.63 214.53-27.78L214.53-27.78L214.53-27.78Q213.41-28.94 212.05-29.73L212.05-29.73L212.05-29.73Q210.69-30.53 209.20-30.95L209.20-30.95L209.20-30.95Q207.72-31.38 206.31-31.38L206.31-31.38L206.31-31.38Q203.53-31.38 201.28-29.97L201.28-29.97L201.28-29.97Q199.03-28.56 197.44-26.33L197.44-26.33L197.44-26.33Q195.84-24.09 194.97-21.31L194.97-21.31L194.97-21.31Q194.09-18.53 194.09-15.81L194.09-15.81L194.09-15.81Q194.09-12.94 195.06-10.30L195.06-10.30L195.06-10.30Q196.03-7.66 197.81-5.64L197.81-5.64L197.81-5.64Q199.59-3.63 202.16-2.42L202.16-2.42L202.16-2.42Q204.72-1.22 207.91-1.22L207.91-1.22L207.91-1.22Q210.53-1.22 212.27-1.95L212.27-1.95L212.27-1.95Q214-2.69 215.05-3.61L215.05-3.61L215.05-3.61Q216.09-4.53 216.58-5.34L216.58-5.34L216.58-5.34Q217.06-6.16 217.19-6.34L217.19-6.34L216.75-2.69L216.75-2.69Q216.19-1.88 215.11-1.16L215.11-1.16L215.11-1.16Q214.03-0.44 212.58 0.09L212.58 0.09L212.58 0.09Q211.13 0.63 209.33 0.92L209.33 0.92L209.33 0.92Q207.53 1.22 205.50 1.22L205.50 1.22L205.50 1.22Q200.84 1.22 197.02 0.23L197.02 0.23L197.02 0.23Q193.19-0.75 190.42-2.77L190.42-2.77L190.42-2.77Q187.66-4.78 186.14-7.83L186.14-7.83L186.14-7.83Q184.63-10.88 184.63-14.97L184.63-14.97L184.63-14.97Q184.72-18.66 185.66-21.47L185.66-21.47L185.66-21.47Q186.59-24.28 188.25-26.38L188.25-26.38L188.25-26.38Q189.91-28.47 192.20-29.88L192.20-29.88L192.20-29.88Q194.50-31.28 197.28-32.14L197.28-32.14L197.28-32.14Q200.06-33 203.30-33.36L203.30-33.36L203.30-33.36Q206.53-33.72 210.03-33.72L210.03-33.72L210.03-33.72Q212.34-33.72 214.08-33.66L214.08-33.66L214.08-33.66Q215.81-33.59 217.25-33.59L217.25-33.59L217.25-33.59Q216.97-32.50 216.86-31.28L216.86-31.28L216.86-31.28Q216.75-30.06 216.75-29.25L216.75-29.25L216.75-29.25Q216.75-28.16 216.92-27.19L216.92-27.19L216.92-27.19Q217.09-26.22 217.41-25.22ZM239.22-1.16L239.22 0L221.28 0L221.28-1.16L221.28-1.16Q222.59-1.16 223.41-1.42L223.41-1.42L223.41-1.42Q224.22-1.69 224.69-2.14L224.69-2.14L224.69-2.14Q225.16-2.59 225.33-3.17L225.33-3.17L225.33-3.17Q225.50-3.75 225.50-4.41L225.50-4.41L225.50-38.91L225.50-38.91Q225.50-39.38 225.33-39.91L225.33-39.91L225.33-39.91Q225.16-40.44 224.69-40.89L224.69-40.89L224.69-40.89Q224.22-41.34 223.41-41.66L223.41-41.66L223.41-41.66Q222.59-41.97 221.28-41.97L221.28-41.97L221.28-43.13L234.97-43.13L234.97-27.97L234.97-27.97Q235.59-29.06 236.47-30.11L236.47-30.11L236.47-30.11Q237.34-31.16 238.52-32.03L238.52-32.03L238.52-32.03Q239.69-32.91 241.17-33.56L241.17-33.56L241.17-33.56Q242.66-34.22 244.53-34.56L244.53-34.56L244.53-34.56Q247.16-35.03 249.22-34.72L249.22-34.72L249.22-34.72Q251.28-34.41 252.84-33.53L252.84-33.53L252.84-33.53Q254.41-32.66 255.50-31.30L255.50-31.30L255.50-31.30Q256.59-29.94 257.28-28.28L257.28-28.28L257.28-28.28Q257.97-26.63 258.28-24.75L258.28-24.75L258.28-24.75Q258.59-22.88 258.59-21L258.59-21L258.59-4.41L258.59-4.41Q258.59-3.94 258.75-3.38L258.75-3.38L258.75-3.38Q258.91-2.81 259.34-2.33L259.34-2.33L259.34-2.33Q259.78-1.84 260.61-1.50L260.61-1.50L260.61-1.50Q261.44-1.16 262.81-1.16L262.81-1.16L262.81 0L245.28 0L245.28-1.16L245.28-1.16Q246.59-1.16 247.41-1.42L247.41-1.42L247.41-1.42Q248.22-1.69 248.69-2.14L248.69-2.14L248.69-2.14Q249.16-2.59 249.33-3.17L249.33-3.17L249.33-3.17Q249.50-3.75 249.50-4.41L249.50-4.41L249.50-22.91L249.50-22.91Q249.50-25.34 248.94-27.03L248.94-27.03L248.94-27.03Q248.38-28.72 247.44-29.70L247.44-29.70L247.44-29.70Q246.50-30.69 245.25-31L245.25-31L245.25-31Q244-31.31 242.59-30.97L242.59-30.97L242.59-30.97Q240.66-30.50 239.23-29.33L239.23-29.33L239.23-29.33Q237.81-28.16 236.89-26.52L236.89-26.52L236.89-26.52Q235.97-24.88 235.50-22.84L235.50-22.84L235.50-22.84Q235.03-20.81 234.97-18.63L234.97-18.63L234.97-4.41L234.97-4.41Q234.97-3.94 235.13-3.38L235.13-3.38L235.13-3.38Q235.28-2.81 235.73-2.33L235.73-2.33L235.73-2.33Q236.19-1.84 237.02-1.50L237.02-1.50L237.02-1.50Q237.84-1.16 239.22-1.16L239.22-1.16ZM283.25-1.16L283.25 0L265.69 0L265.69-1.16L265.69-1.16Q267-1.16 267.83-1.42L267.83-1.42L267.83-1.42Q268.66-1.69 269.13-2.14L269.13-2.14L269.13-2.14Q269.59-2.59 269.77-3.17L269.77-3.17L269.77-3.17Q269.94-3.75 269.94-4.41L269.94-4.41L269.94-29.13L269.94-29.13Q269.94-29.59 269.78-30.17L269.78-30.17L269.78-30.17Q269.63-30.75 269.17-31.23L269.17-31.23L269.17-31.23Q268.72-31.72 267.89-32.05L267.89-32.05L267.89-32.05Q267.06-32.38 265.69-32.38L265.69-32.38L265.69-33.59L283.25-33.59L283.25-32.38L283.25-32.38Q282-32.38 281.17-32.13L281.17-32.13L281.17-32.13Q280.34-31.88 279.86-31.47L279.86-31.47L279.86-31.47Q279.38-31.06 279.19-30.52L279.19-30.52L279.19-30.52Q279-29.97 279-29.38L279-29.38L279-4.41L279-4.41Q279-3.94 279.16-3.38L279.16-3.38L279.16-3.38Q279.31-2.81 279.77-2.33L279.77-2.33L279.77-2.33Q280.22-1.84 281.05-1.50L281.05-1.50L281.05-1.50Q281.88-1.16 283.25-1.16L283.25-1.16ZM269.66-41.91L269.66-41.91L269.66-41.91Q269.66-42.91 270.05-43.80L270.05-43.80L270.05-43.80Q270.44-44.69 271.09-45.34L271.09-45.34L271.09-45.34Q271.75-46 272.64-46.39L272.64-46.39L272.64-46.39Q273.53-46.78 274.53-46.78L274.53-46.78L274.53-46.78Q275.53-46.78 276.42-46.39L276.42-46.39L276.42-46.39Q277.31-46 277.97-45.34L277.97-45.34L277.97-45.34Q278.63-44.69 279.02-43.80L279.02-43.80L279.02-43.80Q279.41-42.91 279.41-41.91L279.41-41.91L279.41-41.91Q279.41-40.91 279.02-40.02L279.02-40.02L279.02-40.02Q278.63-39.13 277.97-38.47L277.97-38.47L277.97-38.47Q277.31-37.81 276.42-37.44L276.42-37.44L276.42-37.44Q275.53-37.06 274.53-37.06L274.53-37.06L274.53-37.06Q273.53-37.06 272.64-37.44L272.64-37.44L272.64-37.44Q271.75-37.81 271.09-38.47L271.09-38.47L271.09-38.47Q270.44-39.13 270.05-40.02L270.05-40.02L270.05-40.02Q269.66-40.91 269.66-41.91ZM320.56-25.22L320.56-25.22L319.53-25.16L319.53-25.16Q318.81-26.63 317.69-27.78L317.69-27.78L317.69-27.78Q316.56-28.94 315.20-29.73L315.20-29.73L315.20-29.73Q313.84-30.53 312.36-30.95L312.36-30.95L312.36-30.95Q310.88-31.38 309.47-31.38L309.47-31.38L309.47-31.38Q306.69-31.38 304.44-29.97L304.44-29.97L304.44-29.97Q302.19-28.56 300.59-26.33L300.59-26.33L300.59-26.33Q299-24.09 298.13-21.31L298.13-21.31L298.13-21.31Q297.25-18.53 297.25-15.81L297.25-15.81L297.25-15.81Q297.25-12.94 298.22-10.30L298.22-10.30L298.22-10.30Q299.19-7.66 300.97-5.64L300.97-5.64L300.97-5.64Q302.75-3.63 305.31-2.42L305.31-2.42L305.31-2.42Q307.88-1.22 311.06-1.22L311.06-1.22L311.06-1.22Q313.69-1.22 315.42-1.95L315.42-1.95L315.42-1.95Q317.16-2.69 318.20-3.61L318.20-3.61L318.20-3.61Q319.25-4.53 319.73-5.34L319.73-5.34L319.73-5.34Q320.22-6.16 320.34-6.34L320.34-6.34L319.91-2.69L319.91-2.69Q319.34-1.88 318.27-1.16L318.27-1.16L318.27-1.16Q317.19-0.44 315.73 0.09L315.73 0.09L315.73 0.09Q314.28 0.63 312.48 0.92L312.48 0.92L312.48 0.92Q310.69 1.22 308.66 1.22L308.66 1.22L308.66 1.22Q304 1.22 300.17 0.23L300.17 0.23L300.17 0.23Q296.34-0.75 293.58-2.77L293.58-2.77L293.58-2.77Q290.81-4.78 289.30-7.83L289.30-7.83L289.30-7.83Q287.78-10.88 287.78-14.97L287.78-14.97L287.78-14.97Q287.88-18.66 288.81-21.47L288.81-21.47L288.81-21.47Q289.75-24.28 291.41-26.38L291.41-26.38L291.41-26.38Q293.06-28.47 295.36-29.88L295.36-29.88L295.36-29.88Q297.66-31.28 300.44-32.14L300.44-32.14L300.44-32.14Q303.22-33 306.45-33.36L306.45-33.36L306.45-33.36Q309.69-33.72 313.19-33.72L313.19-33.72L313.19-33.72Q315.50-33.72 317.23-33.66L317.23-33.66L317.23-33.66Q318.97-33.59 320.41-33.59L320.41-33.59L320.41-33.59Q320.13-32.50 320.02-31.28L320.02-31.28L320.02-31.28Q319.91-30.06 319.91-29.25L319.91-29.25L319.91-29.25Q319.91-28.16 320.08-27.19L320.08-27.19L320.08-27.19Q320.25-26.22 320.56-25.22ZM344.50-34.94L344.50-34.94L344.50-34.94Q346.84-34.94 348.80-34.44L348.80-34.44L348.80-34.44Q350.75-33.94 352.27-33.22L352.27-33.22L352.27-33.22Q353.78-32.50 354.89-31.69L354.89-31.69L354.89-31.69Q356-30.88 356.66-30.22L356.66-30.22L356.66-30.22Q357.63-30.97 358.75-31.58L358.75-31.58L358.75-31.58Q359.88-32.19 361.03-32.63L361.03-32.63L361.03-32.63Q362.19-33.06 363.33-33.30L363.33-33.30L363.33-33.30Q364.47-33.53 365.50-33.59L365.50-33.59L365.88-32.56L365.88-32.56Q364.63-32.06 363.63-30.94L363.63-30.94L363.63-30.94Q362.78-29.97 362.06-28.28L362.06-28.28L362.06-28.28Q361.34-26.59 361.28-23.88L361.28-23.88L361.28-23.88Q361.25-22.28 361.25-20.56L361.25-20.56L361.25-20.56Q361.25-18.84 361.23-17.17L361.23-17.17L361.23-17.17Q361.22-15.50 361.20-13.98L361.20-13.98L361.20-13.98Q361.19-12.47 361.17-11.28L361.17-11.28L361.17-11.28Q361.16-10.09 361.16-9.36L361.16-9.36L361.16-9.36Q361.16-8.63 361.16-8.50L361.16-8.50L361.16-8.50Q361.16-5.78 361.86-4.09L361.86-4.09L361.86-4.09Q362.56-2.41 363.44-1.44L363.44-1.44L363.44-1.44Q364.47-0.31 365.75 0.19L365.75 0.19L365.38 1.22L365.38 1.22Q363.84 1.16 362.09 0.69L362.09 0.69L362.09 0.69Q360.34 0.22 358.69-0.63L358.69-0.63L358.69-0.63Q357.03-1.47 355.63-2.64L355.63-2.64L355.63-2.64Q354.22-3.81 353.34-5.31L353.34-5.31L353.34-5.31Q352.72-4.13 351.75-3L351.75-3L351.75-3Q350.78-1.88 349.38-1L349.38-1L349.38-1Q347.97-0.13 346.06 0.42L346.06 0.42L346.06 0.42Q344.16 0.97 341.69 0.97L341.69 0.97L341.69 0.97Q337.63 0.97 334.55-0.48L334.55-0.48L334.55-0.48Q331.47-1.94 329.41-4.30L329.41-4.30L329.41-4.30Q327.34-6.66 326.30-9.63L326.30-9.63L326.30-9.63Q325.25-12.59 325.25-15.63L325.25-15.63L325.25-15.63Q325.25-17.91 325.80-20.22L325.80-20.22L325.80-20.22Q326.34-22.53 327.42-24.67L327.42-24.67L327.42-24.67Q328.50-26.81 330.11-28.69L330.11-28.69L330.11-28.69Q331.72-30.56 333.86-31.95L333.86-31.95L333.86-31.95Q336-33.34 338.66-34.14L338.66-34.14L338.66-34.14Q341.31-34.94 344.50-34.94ZM344.63-2.31L344.63-2.31L344.63-2.31Q346.81-2.31 348.25-3.31L348.25-3.31L348.25-3.31Q349.69-4.31 350.55-5.75L350.55-5.75L350.55-5.75Q351.41-7.19 351.81-8.78L351.81-8.78L351.81-8.78Q352.22-10.38 352.38-11.59L352.38-11.59L352.63-23.44L352.63-23.44Q352.56-24.09 352.39-25.03L352.39-25.03L352.39-25.03Q352.22-25.97 351.88-26.97L351.88-26.97L351.88-26.97Q351.53-27.97 350.98-28.98L350.98-28.98L350.98-28.98Q350.44-30 349.59-30.78L349.59-30.78L349.59-30.78Q348.75-31.56 347.58-32.06L347.58-32.06L347.58-32.06Q346.41-32.56 344.84-32.56L344.84-32.56L344.84-32.56Q342.50-32.56 340.59-31.38L340.59-31.38L340.59-31.38Q338.69-30.19 337.34-28.14L337.34-28.14L337.34-28.14Q336-26.09 335.27-23.38L335.27-23.38L335.27-23.38Q334.53-20.66 334.53-17.59L334.53-17.59L334.53-17.59Q334.53-13.59 335.39-10.72L335.39-10.72L335.39-10.72Q336.25-7.84 337.67-5.97L337.67-5.97L337.67-5.97Q339.09-4.09 340.91-3.20L340.91-3.20L340.91-3.20Q342.72-2.31 344.63-2.31Z" fill="#ccc"></path></g></g><style>text {
  font-size: 64px;
  font-family: Arial Black;
  dominant-baseline: central;
  text-anchor: middle;
}</style></svg>